# xmcd
#
# Track frame offsets: 
#        150
#        23900
#        41452
#        66492
#        82937
#        105265
#        127697
#        148795
#        170270
#        191310
#
# Disc length: 2878 seconds
#
# Revision: 7
# Processed by: cddbd v1.5.2PL0 Copyright (c) Steve Scherf et al.
# Submitted via: ExactAudioCopyFreeDBPlugin 1.0
#
DISCID=750b3c0a
DTITLE=Johnny "Guitar" Watson - Bow Wow
DYEAR=1994
DGENRE=Funk
TTITLE0=Johnny G. Is Back
TTITLE1=Bow Wow
TTITLE2=Never to Late
TTITLE3=My Funk
TTITLE4=It Takes 2
TTITLE5=Time Change
TTITLE6=Doing Wrong Woman
TTITLE7=What's Up With You
TTITLE8=Hook Me Up
TTITLE9=I Don't Think So
EXTD=YEAR: 1996
EXTT0=
EXTT1=
EXTT2=
EXTT3=
EXTT4=
EXTT5=
EXTT6=
EXTT7=
EXTT8=
EXTT9=
PLAYORDER=
